{
	"asset":{
		"generator":"Khronos glTF Blender I/O v4.1.62",
		"version":"2.0"
	},
	"scene":0,
	"scenes":[
		{
			"name":"Scene",
			"nodes":[
				0,
				1
			]
		}
	],
	"nodes":[
		{
			"mesh":0,
			"name":"Cylinder.002"
		},
		{
			"mesh":1,
			"name":"Cylinder.003",
			"rotation":[
				0,
				0,
				-0.9999998807907104,
				0.0006558458553627133
			],
			"scale":[
				1.0299628973007202,
				1.0299628973007202,
				1.0299628973007202
			]
		}
	],
	"materials":[
		{
			"doubleSided":true,
			"name":"BoxMat",
			"pbrMetallicRoughness":{
				"baseColorFactor":[
					0.8001565933227539,
					0.17091354727745056,
					0.22897790372371674,
					1
				],
				"metallicFactor":0,
				"roughnessFactor":0.5
			}
		},
		{
			"doubleSided":true,
			"name":"LidMat",
			"pbrMetallicRoughness":{
				"baseColorFactor":[
					0.40902256965637207,
					0.3146222233772278,
					0.8003705143928528,
					1
				],
				"metallicFactor":0,
				"roughnessFactor":0.5
			}
		}
	],
	"meshes":[
		{
			"name":"Cylinder.002",
			"primitives":[
				{
					"attributes":{
						"POSITION":0,
						"NORMAL":1,
						"TEXCOORD_0":2
					},
					"indices":3,
					"material":0
				}
			]
		},
		{
			"name":"Cylinder.003",
			"primitives":[
				{
					"attributes":{
						"POSITION":4,
						"NORMAL":5,
						"TEXCOORD_0":6
					},
					"indices":7,
					"material":1
				}
			]
		}
	],
	"accessors":[
		{
			"bufferView":0,
			"componentType":5126,
			"count":262,
			"max":[
				1,
				1.9362579584121704,
				1
			],
			"min":[
				-1,
				0,
				-1
			],
			"type":"VEC3"
		},
		{
			"bufferView":1,
			"componentType":5126,
			"count":262,
			"type":"VEC3"
		},
		{
			"bufferView":2,
			"componentType":5126,
			"count":262,
			"type":"VEC2"
		},
		{
			"bufferView":3,
			"componentType":5123,
			"count":1242,
			"type":"SCALAR"
		},
		{
			"bufferView":4,
			"componentType":5126,
			"count":338,
			"max":[
				0.998726487159729,
				-1.5333569049835205,
				0.9999997615814209
			],
			"min":[
				-1.003157615661621,
				-1.9709079265594482,
				-1.0000005960464478
			],
			"type":"VEC3"
		},
		{
			"bufferView":5,
			"componentType":5126,
			"count":338,
			"type":"VEC3"
		},
		{
			"bufferView":6,
			"componentType":5126,
			"count":338,
			"type":"VEC2"
		},
		{
			"bufferView":7,
			"componentType":5123,
			"count":1677,
			"type":"SCALAR"
		}
	],
	"bufferViews":[
		{
			"buffer":0,
			"byteLength":3144,
			"byteOffset":0,
			"target":34962
		},
		{
			"buffer":0,
			"byteLength":3144,
			"byteOffset":3144,
			"target":34962
		},
		{
			"buffer":0,
			"byteLength":2096,
			"byteOffset":6288,
			"target":34962
		},
		{
			"buffer":0,
			"byteLength":2484,
			"byteOffset":8384,
			"target":34963
		},
		{
			"buffer":0,
			"byteLength":4056,
			"byteOffset":10868,
			"target":34962
		},
		{
			"buffer":0,
			"byteLength":4056,
			"byteOffset":14924,
			"target":34962
		},
		{
			"buffer":0,
			"byteLength":2704,
			"byteOffset":18980,
			"target":34962
		},
		{
			"buffer":0,
			"byteLength":3354,
			"byteOffset":21684,
			"target":34963
		}
	],
	"buffers":[
		{
			"byteLength":25040,
			"uri":"box.bin"
		}
	]
}
